<svg id="Layer_1" data-name="Layer 1" xmlns="http://www.w3.org/2000/svg" xmlns:xlink="http://www.w3.org/1999/xlink" viewBox="0 0 1323.77 618.44"><defs><style>.cls-1,.cls-11,.cls-12,.cls-14,.cls-15,.cls-16,.cls-17,.cls-18,.cls-2,.cls-4,.cls-5,.cls-6,.cls-7,.cls-8{stroke-miterlimit:10;}.cls-1{fill:url(#linear-gradient);stroke:url(#linear-gradient-2);}.cls-2{fill:url(#linear-gradient-3);stroke:url(#linear-gradient-4);}.cls-3{fill:url(#linear-gradient-5);}.cls-4{fill:url(#linear-gradient-6);stroke:url(#linear-gradient-7);}.cls-5{fill:url(#linear-gradient-8);stroke:url(#linear-gradient-9);}.cls-6{fill:url(#linear-gradient-10);stroke:url(#linear-gradient-11);}.cls-7{fill:url(#linear-gradient-12);stroke:url(#linear-gradient-13);}.cls-18,.cls-8{font-size:86.08px;letter-spacing:0.03em;}.cls-8,.cls-9{fill:#fff;}.cls-8{stroke:#fff;}.cls-18,.cls-19,.cls-8,.cls-9{font-family:ArialMT, Arial;}.cls-19,.cls-9{font-size:36.31px;letter-spacing:0.07em;}.cls-10{letter-spacing:0em;}.cls-11{fill:url(#linear-gradient-14);stroke:url(#linear-gradient-15);}.cls-12{fill:url(#linear-gradient-16);stroke:url(#linear-gradient-17);}.cls-13{fill:url(#linear-gradient-18);}.cls-14{fill:url(#linear-gradient-19);stroke:url(#linear-gradient-20);}.cls-15{fill:url(#linear-gradient-21);stroke:url(#linear-gradient-22);}.cls-16{fill:url(#linear-gradient-23);stroke:url(#linear-gradient-24);}.cls-17{fill:url(#linear-gradient-25);stroke:url(#linear-gradient-26);}.cls-18{stroke:#000;}</style><linearGradient id="linear-gradient" x1="787.14" y1="238.66" x2="859.52" y2="238.66" gradientUnits="userSpaceOnUse"><stop offset="0" stop-color="#258bcb"/><stop offset="1" stop-color="#893291"/></linearGradient><linearGradient id="linear-gradient-2" x1="786.64" y1="238.66" x2="860.02" y2="238.66" xlink:href="#linear-gradient"/><linearGradient id="linear-gradient-3" x1="1030.04" y1="249.44" x2="1266.78" y2="228.72" gradientTransform="translate(2129.51 -403.91) rotate(135)" gradientUnits="userSpaceOnUse"><stop offset="0.58" stop-color="#258bcb"/><stop offset="0.93" stop-color="#7d3691"/></linearGradient><linearGradient id="linear-gradient-4" x1="1029.54" y1="249.48" x2="1267.27" y2="228.68" gradientTransform="translate(2129.51 -403.91) rotate(135)" gradientUnits="userSpaceOnUse"><stop offset="0.58" stop-color="#258bcb"/><stop offset="1" stop-color="#7d3691"/></linearGradient><linearGradient id="linear-gradient-5" x1="1250.27" y1="137.22" x2="1250.27" y2="137.22" gradientUnits="userSpaceOnUse"><stop offset="0.25" stop-color="#4178bd"/><stop offset="0.59" stop-color="#2f54a3"/><stop offset="1" stop-color="#893291"/></linearGradient><linearGradient id="linear-gradient-6" x1="1034.1" y1="290.14" x2="1167.08" y2="280.84" gradientUnits="userSpaceOnUse"><stop offset="0.09" stop-color="#258bcb"/><stop offset="0.94" stop-color="#893291"/></linearGradient><linearGradient id="linear-gradient-7" x1="1033.59" y1="290.07" x2="1167.78" y2="280.68" xlink:href="#linear-gradient-6"/><linearGradient id="linear-gradient-8" x1="958.82" y1="224.9" x2="1118.16" y2="176.18" gradientTransform="translate(1914.62 -391.98) rotate(135)" gradientUnits="userSpaceOnUse"><stop offset="0.27" stop-color="#258bcb"/><stop offset="0.8" stop-color="#893291"/></linearGradient><linearGradient id="linear-gradient-9" x1="958.34" y1="225.04" x2="1118.64" y2="176.04" xlink:href="#linear-gradient-8"/><linearGradient id="linear-gradient-10" x1="888.4" y1="200.54" x2="1036.25" y2="200.54" gradientTransform="translate(423.66 -621.73) rotate(45)" gradientUnits="userSpaceOnUse"><stop offset="0.08" stop-color="#ffc83e"/><stop offset="0.41" stop-color="#fcaf3b"/><stop offset="1" stop-color="#f16133"/></linearGradient><linearGradient id="linear-gradient-11" x1="887.9" y1="200.54" x2="1036.75" y2="200.54" xlink:href="#linear-gradient-10"/><linearGradient id="linear-gradient-12" x1="1040.13" y1="237.3" x2="1265.12" y2="237.3" gradientTransform="matrix(0.71, 0.71, -0.71, 0.71, 506.7, -748.83)" gradientUnits="userSpaceOnUse"><stop offset="0.3" stop-color="#ffc83e"/><stop offset="1" stop-color="#f16133"/></linearGradient><linearGradient id="linear-gradient-13" x1="1039.63" y1="237.3" x2="1265.62" y2="237.3" xlink:href="#linear-gradient-12"/><linearGradient id="linear-gradient-14" x1="53.88" y1="238.66" x2="126.26" y2="238.66" xlink:href="#linear-gradient"/><linearGradient id="linear-gradient-15" x1="53.38" y1="238.66" x2="126.76" y2="238.66" xlink:href="#linear-gradient"/><linearGradient id="linear-gradient-16" x1="296.78" y1="249.44" x2="533.51" y2="228.72" gradientTransform="translate(877.75 114.58) rotate(135)" xlink:href="#linear-gradient-3"/><linearGradient id="linear-gradient-17" x1="296.28" y1="249.48" x2="534.01" y2="228.68" gradientTransform="translate(877.75 114.58) rotate(135)" xlink:href="#linear-gradient-4"/><linearGradient id="linear-gradient-18" x1="517.01" y1="137.22" x2="517.01" y2="137.22" xlink:href="#linear-gradient-5"/><linearGradient id="linear-gradient-19" x1="300.83" y1="290.14" x2="433.82" y2="280.84" xlink:href="#linear-gradient-6"/><linearGradient id="linear-gradient-20" x1="300.33" y1="290.07" x2="434.51" y2="280.68" xlink:href="#linear-gradient-6"/><linearGradient id="linear-gradient-21" x1="225.56" y1="224.9" x2="384.9" y2="176.18" gradientTransform="translate(662.86 126.51) rotate(135)" xlink:href="#linear-gradient-8"/><linearGradient id="linear-gradient-22" x1="225.08" y1="225.04" x2="385.38" y2="176.04" gradientTransform="translate(662.86 126.51) rotate(135)" xlink:href="#linear-gradient-8"/><linearGradient id="linear-gradient-23" x1="155.14" y1="200.54" x2="302.98" y2="200.54" gradientTransform="translate(208.89 -103.23) rotate(45)" xlink:href="#linear-gradient-10"/><linearGradient id="linear-gradient-24" x1="154.64" y1="200.54" x2="303.48" y2="200.54" gradientTransform="translate(208.89 -103.23) rotate(45)" xlink:href="#linear-gradient-10"/><linearGradient id="linear-gradient-25" x1="308.58" y1="239.01" x2="533.57" y2="239.01" gradientTransform="matrix(0.71, 0.71, -0.71, 0.71, 291.93, -230.34)" xlink:href="#linear-gradient-12"/><linearGradient id="linear-gradient-26" x1="308.08" y1="239.01" x2="534.07" y2="239.01" gradientTransform="matrix(0.71, 0.71, -0.71, 0.71, 291.93, -230.34)" xlink:href="#linear-gradient-12"/></defs><rect x="632" width="691.77" height="618.44"/><rect class="cls-1" x="787.14" y="126.62" width="72.38" height="224.08" rx="36.19"/><rect class="cls-2" x="1112.22" y="95.03" width="72.38" height="288.11" rx="36.19" transform="translate(1690.14 1220.18) rotate(-135)"/><path class="cls-3" d="M1250.27,137.22" transform="translate(-101.26)"/><path class="cls-4" d="M1116.06,220.25l-69.51,69.51a36.18,36.18,0,0,0,0,51.18h0a36.2,36.2,0,0,0,51.18,0l68.75-68.75Z" transform="translate(-101.26)"/><rect class="cls-5" x="1002.3" y="110.99" width="72.38" height="179.1" rx="36.19" transform="translate(1529.75 1076.67) rotate(-135)"/><rect class="cls-6" x="926.14" y="110.99" width="72.38" height="179.1" rx="36.19" transform="translate(38.79 739.2) rotate(-45)"/><rect class="cls-7" x="1117.74" y="93.87" width="72.38" height="289.46" rx="36.19" transform="translate(68 885.84) rotate(-45)"/><text class="cls-8" transform="translate(751.19 438.04)">MAXSONS</text><text class="cls-9" transform="translate(733.26 480.99)">ENGINEERING (PVT) <tspan class="cls-10" x="415.61" y="0">L</tspan><tspan x="435.69" y="0">TD</tspan></text><rect class="cls-11" x="53.88" y="126.62" width="72.38" height="224.08" rx="36.19"/><rect class="cls-12" x="378.96" y="95.03" width="72.38" height="288.11" rx="36.19" transform="translate(438.38 701.69) rotate(-135)"/><path class="cls-13" d="M517,137.22" transform="translate(-101.26)"/><path class="cls-14" d="M382.79,220.25l-69.51,69.51a36.2,36.2,0,0,0,0,51.18h0a36.2,36.2,0,0,0,51.18,0l68.76-68.75Z" transform="translate(-101.26)"/><rect class="cls-15" x="269.04" y="110.99" width="72.38" height="179.1" rx="36.19" transform="translate(277.99 558.17) rotate(-135)"/><rect class="cls-16" x="192.87" y="110.99" width="72.38" height="179.1" rx="36.19" transform="translate(-175.98 220.71) rotate(-45)"/><rect class="cls-17" x="384.48" y="93.87" width="72.38" height="289.46" rx="36.19" transform="translate(-146.77 367.34) rotate(-45)"/><text class="cls-18" transform="translate(17.93 438.04)">MAXSONS</text><text class="cls-19" transform="translate(0 480.99)">ENGINEERING (PVT) <tspan class="cls-10" x="415.61" y="0">L</tspan><tspan x="435.69" y="0">TD</tspan></text></svg>